<?xml version="1.0" encoding="UTF-8"?>
<svg width="175px" height="63px" viewBox="0 0 175 63" version="1.1" xmlns="http://www.w3.org/2000/svg" xmlns:xlink="http://www.w3.org/1999/xlink">
    <title>logo</title>
    <defs>
        <polygon id="path-1" points="0 62.2794118 174.485294 62.2794118 174.485294 0 0 0"></polygon>
    </defs>
    <g id="手机端" stroke="none" stroke-width="1" fill="none" fill-rule="evenodd">
        <g id="蚂蚁开源手机端" transform="translate(-31.000000, -190.000000)">
            <g id="编组" transform="translate(31.000000, 187.122449)">
                <g id="编组" transform="translate(0.000000, 3.602941)">
                    <path d="M62.3757034,54.8909602 L63.4994082,51.743231 L63.6329447,51.743231 L64.7343935,54.8909602 L62.3757034,54.8909602 Z M62.5982642,50.4411765 L59.7058824,58.1617647 L61.2074863,58.1617647 L61.9419369,56.1149005 L65.1681599,56.1149005 L65.8803544,58.1617647 L67.4264706,58.1617647 L64.5563449,50.4411765 L62.5982642,50.4411765 Z" id="Fill-1" fill="#FFFFFF"></path>
                    <polygon id="Fill-2" fill="#FFFFFF" points="74.2028109 56.259209 74.1344006 56.259209 71.2616344 50.4411765 68.9705882 50.4411765 68.9705882 58.1617647 70.4411765 58.1617647 70.4411765 51.9763014 70.5095867 51.9763014 73.6331906 58.1617647 75.6617647 58.1617647 75.6617647 50.4411765 74.2028109 50.4411765"></polygon>
                    <polygon id="Fill-3" fill="#FFFFFF" points="77.2058824 51.7205986 79.3010629 51.7205986 79.3010629 58.1617647 80.761092 58.1617647 80.761092 51.7205986 82.8676471 51.7205986 82.8676471 50.4411765 77.2058824 50.4411765"></polygon>
                    <g>
                        <path d="M102.428786,54.2615542 L101.60387,54.2615542 L101.60387,51.4356303 L102.428786,51.4356303 C103.64977,51.4356303 104.067392,51.7875802 104.067392,52.8322068 C104.067392,53.9428241 103.660997,54.2615542 102.428786,54.2615542 M102.604816,50.2702454 L100.162848,50.2702454 L100.162848,57.9013621 L101.60387,57.9013621 L101.60387,55.4273881 L102.604816,55.4273881 C104.694724,55.4273881 105.541644,54.7347113 105.541644,52.81021 C105.541644,51.0176899 104.84875,50.2702454 102.604816,50.2702454" id="Fill-4" fill="#FFFFFF"></path>
                        <polygon id="Fill-6" fill="#FFFFFF" points="109.203339 54.5695552 112.063378 54.5695552 112.063378 53.3709505 109.203339 53.3709505 109.203339 51.5236627 112.282966 51.5236627 112.282966 50.2702902 107.762317 50.2702902 107.762317 57.9009581 112.481 57.9009581 112.481 56.6368117 109.203339 56.6368117"></polygon>
                        <polygon id="Fill-8" fill="#FFFFFF" points="119.73959 56.0208545 119.673579 56.0208545 116.901555 50.2702454 114.690851 50.2702454 114.690851 57.9013621 116.109868 57.9013621 116.109868 51.7875802 116.17588 51.7875802 119.189945 57.9013621 121.147381 57.9013621 121.147381 50.2702454 119.73959 50.2702454"></polygon>
                        <path d="M132.366243,53.3597276 C131.156037,53.0629944 130.980456,52.8762455 130.980456,52.304327 C130.980456,51.5456595 131.398078,51.3584617 132.322236,51.3584617 C132.982349,51.3584617 133.829269,51.5012169 134.225336,51.6448699 L134.225336,50.4242683 C133.829269,50.2810642 133.092367,50.149083 132.278228,50.149083 C130.518377,50.149083 129.572664,50.7869921 129.572664,52.3375467 C129.572664,53.6896806 130.078302,54.1188439 131.684127,54.5035646 C132.937892,54.8115207 133.19116,55.0314894 133.19116,55.7349402 C133.19116,56.5048305 132.773088,56.7687929 131.717357,56.7687929 C130.903218,56.7687929 129.990287,56.6148148 129.517431,56.4500628 L129.517431,57.736206 C129.957057,57.8681872 130.859211,58.0113913 131.761365,58.0113913 C133.752031,58.0113913 134.621404,57.252275 134.621404,55.756937 C134.621404,54.3055928 134.148548,53.7888909 132.366243,53.3597276" id="Fill-10" fill="#FFFFFF"></path>
                        <path d="M150.590068,55.1961516 C150.590068,56.2627752 150.260012,56.7687031 148.929009,56.7687031 C147.653241,56.7687031 147.279177,56.295546 147.279177,55.1961516 L147.279177,50.2702005 L145.838155,50.2702005 L145.838155,55.3941234 C145.838155,57.3513956 146.927566,58.0113015 148.918232,58.0113015 C150.930902,58.0113015 152.019863,57.2521852 152.019863,55.3941234 L152.019863,50.2702005 L150.590068,50.2702005 L150.590068,55.1961516 Z" id="Fill-12" fill="#FFFFFF"></path>
                        <path d="M156.737603,53.9206926 L156.000702,53.9206926 L156.000702,51.4359446 L156.737603,51.4359446 C157.958587,51.4359446 158.431893,51.6446903 158.431893,52.6341004 C158.431893,53.7114979 157.958587,53.9206926 156.737603,53.9206926 M159.872465,52.6341004 C159.872465,50.8967969 159.00399,50.2701107 156.935637,50.2701107 L154.56013,50.2701107 L154.56013,57.9012274 L156.000702,57.9012274 L156.000702,55.0200869 L156.935637,55.0200869 L156.990422,55.0200869 L158.893522,57.9012274 L160.587363,57.9012274 L158.398662,54.8553349 C159.399609,54.5805985 159.872465,53.9099186 159.872465,52.6341004" id="Fill-14" fill="#FFFFFF"></path>
                        <path d="M163.534249,54.0745359 C163.534249,52.0620472 164.227143,51.4025901 165.722949,51.4025901 C166.372285,51.4025901 166.911152,51.5013516 167.384008,51.6665525 L167.384008,50.4019572 C166.922379,50.2479791 166.361058,50.1599917 165.634934,50.1599917 C163.413453,50.1599917 161.994435,51.1386277 161.994435,54.0853099 C161.994435,57.2748555 163.424231,58.0110771 165.61338,58.0110771 C166.361058,58.0110771 167.021171,57.8683219 167.472024,57.692347 L167.472024,56.4497485 C166.889149,56.6584943 166.339504,56.7464818 165.668165,56.7464818 C164.205139,56.7464818 163.534249,56.207783 163.534249,54.0745359" id="Fill-16" fill="#FFFFFF"></path>
                        <polygon id="Fill-18" fill="#FFFFFF" points="170.605403 54.5695552 173.465442 54.5695552 173.465442 53.3709505 170.605403 53.3709505 170.605403 51.5236627 173.685031 51.5236627 173.685031 50.2702902 169.164382 50.2702902 169.164382 57.9009581 173.883065 57.9009581 173.883065 56.6368117 170.605403 56.6368117"></polygon>
                        <path d="M169.587438,37.2668655 C170.144267,39.732759 170.882067,42.1196434 171.221553,43.1736973 L173.884008,42.7795494 C173.70708,42.244442 172.899227,39.6492607 172.272794,36.9526246 L169.587438,37.2668655 Z" id="Fill-20" fill="#FFFFFF"></path>
                        <path d="M160.679329,36.9524899 C160.052896,39.649575 159.245493,42.2443073 159.068116,42.7798636 L161.731019,43.1735627 C162.070506,42.1195088 162.808305,39.7326244 163.364686,37.2667308 L160.679329,36.9524899 Z" id="Fill-22" fill="#FFFFFF"></path>
                        <mask id="mask-2" fill="white">
                            <use xlink:href="#path-1"></use>
                        </mask>
                        <g id="Clip-25"></g>
                        <path d="M163.064896,28.4684334 L171.046421,28.4684334 L171.046421,26.9789314 L163.064896,26.9789314 L163.064896,28.4684334 Z M163.064896,32.6096801 L171.046421,32.6096801 L171.046421,31.1201781 L163.064896,31.1201781 L163.064896,32.6096801 Z M155.853502,19.7783247 L155.853502,21.9201012 L155.852603,21.9201012 L155.852603,36.733868 C155.852603,38.9856288 155.098189,41.0627614 153.831401,42.7313808 L155.594845,44.8251232 C157.431036,42.6321704 158.538409,39.8107357 158.538409,36.733868 L158.538409,22.4305182 L165.858924,22.4305182 C165.776746,23.474696 164.921294,24.3015986 163.861522,24.3267379 L160.411871,24.3267379 L160.411871,31.6400223 L160.411871,34.9934221 L160.411871,35.2614247 L165.870599,35.2614247 L165.870599,41.6005623 L164.121076,41.6005623 L164.121076,44.2527558 L166.586844,44.2527558 C167.656496,44.2527558 168.523174,43.3854508 168.523174,42.3161338 L168.523174,35.2614247 L171.762666,35.2614247 C172.831869,35.2614247 173.698997,34.3945686 173.698997,33.3257005 L173.698997,24.3267379 L168.044031,24.3267379 C168.32559,23.7498813 168.492189,23.1088298 168.515091,22.4305182 L174.485294,22.4305182 L174.485294,19.7783247 L155.853502,19.7783247 Z" id="Fill-24" fill="#FFFFFF" mask="url(#mask-2)"></path>
                        <path d="M83.78918,19.9210799 L72.0535441,19.9210799 L72.0535441,22.4305182 L80.9174653,22.4305182 L80.364228,30.9733826 L75.7748732,30.9733826 L76.2850011,23.7853456 L73.7069692,23.7853456 L73.0024,33.482821 L83.9593723,33.482821 C83.9265912,36.6925677 83.7680744,38.5874406 83.485618,39.3586777 C83.0832636,40.4571742 82.3795925,41.6827139 79.6816626,41.6827139 L75.4798433,41.6827139 L75.4798433,44.251858 L79.8011115,44.251858 C83.0765278,44.251858 85.0501299,43.0285629 86.0115594,40.4024065 C86.5787174,38.8527497 86.6546079,35.3835298 86.6546079,32.1387676 L86.6546079,30.9733826 L83.0608108,30.9733826 L83.78918,19.9210799 Z" id="Fill-26" fill="#FFFFFF" mask="url(#mask-2)"></path>
                        <path d="M62.7650403,34.3034388 L64.2514164,34.3034388 L64.2514164,25.1478045 L62.7650403,25.1478045 L62.7650403,34.3034388 Z M66.9408143,25.1478045 L68.5461903,25.1478045 L68.5461903,33.929941 C68.5461903,34.1359932 68.3782433,34.3038877 68.1721265,34.3038877 L66.9408143,34.3038877 L66.9408143,25.1478045 Z M71.7731085,42.0607008 L71.7731085,38.8581367 L81.0672256,38.8581367 L81.0672256,36.169581 L71.7695161,36.169581 L71.7695161,38.8181832 L69.0832616,38.8181832 L69.0832616,41.4438907 L66.9408143,41.4438907 L66.9408143,36.9327376 L68.1721265,36.9327376 C70.0208911,36.9327376 71.2351391,35.7179719 71.2351391,33.8702352 L71.2351391,22.5194035 L66.9408143,22.5194035 L66.9408143,18.936159 L64.2514164,18.936159 L64.2514164,22.5194035 L60.0756424,22.5194035 L60.0756424,36.9327376 L64.2514164,36.9327376 L64.2514164,41.4438907 L60.0226538,41.4438907 L60.0226538,44.251858 L69.581265,44.251858 C70.9490903,44.251858 71.7731085,43.4280978 71.7731085,42.0607008 L71.7731085,42.0607008 Z" id="Fill-27" fill="#FFFFFF" mask="url(#mask-2)"></path>
                        <path d="M109.429304,26.870204 L111.637313,26.5878361 C111.61037,22.6674559 111.073748,18.905094 111.050397,18.7430355 L108.388391,19.1282051 C108.389289,19.134041 108.404557,19.2431275 108.427908,19.4222448 C108.587323,20.2325376 109.193549,23.4728106 109.429304,26.870204" id="Fill-28" fill="#FFFFFF" mask="url(#mask-2)"></path>
                        <path d="M129.899398,30.3561237 L136.928475,30.3561237 L136.928475,22.4673293 L129.899398,22.4673293 L129.899398,30.3561237 Z M129.899398,33.0442304 L136.928475,33.0442304 L136.928475,44.2523069 L139.741813,44.2523069 L139.741813,33.0442304 L146.177238,33.0442304 L146.177238,30.3556747 L139.741813,30.3556747 L139.741813,22.4673293 L144.822435,22.4673293 L144.822435,19.7787736 L121.821774,19.7787736 L121.821774,22.4673293 L127.213592,22.4673293 L127.213592,30.3556747 L120.466971,30.3556747 L120.466971,33.0442304 L127.213592,33.0442304 L127.213592,34.1826805 C127.213592,37.8269775 125.242235,41.0174209 122.310347,42.7502352 L124.057625,44.8251232 C127.566551,42.5783005 129.899398,38.648942 129.899398,34.1826805 L129.899398,33.0442304 Z" id="Fill-29" fill="#FFFFFF" mask="url(#mask-2)"></path>
                        <path d="M93.3623856,34.3034388 L94.8483127,34.3034388 L94.8483127,25.1478045 L93.3623856,25.1478045 L93.3623856,34.3034388 Z M97.5372614,25.1478045 L99.1430866,25.1478045 L99.1430866,33.929941 C99.1430866,34.1359932 98.9746905,34.3038877 98.7685737,34.3038877 L97.5372614,34.3038877 L97.5372614,25.1478045 Z M102.039948,43.3486397 L103.279793,44.8251232 C105.703349,42.7910865 107.83457,40.8562602 109.656391,38.824917 C111.478662,40.8562602 113.609883,42.7915355 116.033439,44.8251232 L117.839094,42.6743685 C115.382308,40.6129479 113.247494,38.6695922 111.466537,36.632413 C112.383061,35.4154028 113.197649,34.1445226 113.900422,32.7816148 C115.724039,29.2464042 115.876269,25.4620455 115.876269,21.8900238 L113.067423,21.8900238 C113.067423,25.1172783 112.938543,28.5178142 111.403669,31.4950226 C110.891296,32.4893707 110.306625,33.4343381 109.656391,34.3483303 C109.006607,33.4343381 108.421936,32.4893707 107.909114,31.4950226 C106.374688,28.5182631 106.245809,25.1172783 106.245809,21.8900238 L103.436962,21.8900238 C103.436962,25.3058228 103.589642,29.2464042 105.412361,32.7816148 C106.115134,34.1445226 106.929722,35.4154028 107.846695,36.632413 C106.285775,38.4177505 104.452728,40.1312614 102.369556,41.9148032 L102.369556,38.8181832 L99.6801578,38.8181832 L99.6801578,41.4438907 L97.5372614,41.4438907 L97.5372614,36.9327376 L98.7685737,36.9327376 C100.617787,36.9327376 101.832484,35.7179719 101.832484,33.8702352 L101.832484,22.5194035 L97.5372614,22.5194035 L97.5372614,18.936159 L94.8478636,18.936159 L94.8478636,22.5194035 L90.6725386,22.5194035 L90.6725386,36.9327376 L94.8478636,36.9327376 L94.8478636,41.4438907 L90.619101,41.4438907 L90.619101,44.251858 L100.177712,44.251858 C101.035859,44.251858 101.679356,43.927292 102.039948,43.3486397 L102.039948,43.3486397 Z" id="Fill-30" fill="#FFFFFF" mask="url(#mask-2)"></path>
                        <path d="M154.290786,24.5010518 C153.813439,22.4284083 153.219787,20.4370186 152.856051,19.2788163 L150.196291,19.6716175 C150.50614,20.6394796 151.144249,22.7125719 151.654377,24.8758963 L154.290786,24.5010518 Z" id="Fill-31" fill="#FFFFFF" mask="url(#mask-2)"></path>
                        <path d="M153.886815,31.7173705 C153.409019,29.6447271 152.815816,27.6533373 152.45208,26.495135 L149.79232,26.8879362 C150.10172,27.8553494 150.740278,29.9288907 151.250406,32.0922151 L153.886815,31.7173705 Z" id="Fill-32" fill="#FFFFFF" mask="url(#mask-2)"></path>
                        <path d="M153.886725,34.5432944 L151.270074,34.1060506 C150.661603,37.7458585 149.309046,42.1070738 148.820921,43.622164 L151.50538,43.9408941 C152.102175,42.0558974 153.301156,38.0493254 153.886725,34.5432944" id="Fill-33" fill="#FFFFFF" mask="url(#mask-2)"></path>
                        <path d="M94.4864631,56.4975132 C93.1559095,56.4975132 92.0732349,55.4156265 92.0732349,54.0859384 C92.0732349,52.7558014 93.1559095,51.6739147 94.4864631,51.6739147 C95.8170168,51.6739147 96.8992423,52.7558014 96.8992423,54.0859384 C96.8992423,55.4156265 95.8170168,56.4975132 94.4864631,56.4975132 M94.4864631,50.2912546 C92.393412,50.2912546 90.6910398,51.9935427 90.6910398,54.0859384 C90.6910398,56.1778852 92.393412,57.8797244 94.4864631,57.8797244 C96.5790652,57.8797244 98.2814375,56.1778852 98.2814375,54.0859384 C98.2814375,51.9935427 96.5790652,50.2912546 94.4864631,50.2912546" id="Fill-34" fill="#FFFFFF" mask="url(#mask-2)"></path>
                        <path d="M140.229937,56.4975132 C138.899383,56.4975132 137.816708,55.4156265 137.816708,54.0859384 C137.816708,52.7558014 138.899383,51.6739147 140.229937,51.6739147 C141.56049,51.6739147 142.642716,52.7558014 142.642716,54.0859384 C142.642716,55.4156265 141.56049,56.4975132 140.229937,56.4975132 M140.229937,50.2912546 C138.136886,50.2912546 136.434513,51.9935427 136.434513,54.0859384 C136.434513,56.1778852 138.136886,57.8797244 140.229937,57.8797244 C142.322539,57.8797244 144.024911,56.1778852 144.024911,54.0859384 C144.024911,51.9935427 142.322539,50.2912546 140.229937,50.2912546" id="Fill-35" fill="#FFFFFF" mask="url(#mask-2)"></path>
                        <path d="M44.9565025,4.84357516 L42.3775725,0.786724637 C42.1283462,0.396168041 41.7412598,0.129961074 41.2886111,0.0365866236 C40.8301246,-0.0585834894 40.361759,0.0343420455 39.970631,0.300549013 C33.8257453,4.48354483 30.7083969,9.77311767 29.1313114,14.2438684 C24.2752171,13.4708357 19.227825,14.075974 14.6766399,16.0660169 C15.682975,13.7455721 17.3323586,11.2271554 20.0199602,8.83802642 C20.3818995,8.515705 20.5929559,8.07801226 20.6140616,7.60485519 C20.6342691,7.14157426 20.4681183,6.69804562 20.1456959,6.35642083 L17.2429964,3.2791042 C16.8756684,2.88989435 16.3758688,2.67261919 15.8280201,2.66768112 C15.2824168,2.68025075 14.7839644,2.88854761 14.4242703,3.25441384 C8.66961456,9.1190476 7.3166081,15.4873647 7.25418928,21.0588565 C2.57681944,25.6211861 0.000134716873,31.6631415 0.000134716873,38.0961024 C0.000134716873,44.5865246 2.61992884,50.6814521 7.37723069,55.257698 C12.2436532,59.9394391 18.6346217,62.2796362 25.0269373,62.2796362 C31.4183548,62.2796362 37.8111195,59.9385412 42.6761949,55.2581469 L43.3421453,54.6175443 C43.699594,54.2736749 43.7108204,53.7053477 43.3668434,53.3480109 L39.8466915,49.6902464 C39.5027144,49.3329095 38.9337601,49.3216866 38.5763113,49.665556 L38.1510551,50.0749671 C31.2890266,56.6758224 20.4887749,57.2921836 13.1597279,51.2143149 C9.12001797,47.8640576 6.87338959,43.1414652 6.87338959,38.0961024 C6.87338959,33.0507397 9.12001797,28.3281473 13.1597279,24.9783389 C20.4887749,18.9000213 31.2894757,19.5163825 38.1510551,26.1172378 L38.5399378,26.4916335 C38.8973866,26.8355028 39.4658918,26.82428 39.8103179,26.4669431 L43.3304698,22.8096275 C43.6748959,22.4522907 43.6636695,21.8839635 43.3062208,21.5400941 L42.6766439,20.9345069 C40.5005174,18.8412133 38.0181344,17.2197301 35.3682535,16.0624256 C37.3306293,12.4773854 41.2118224,9.17561097 44.4764613,7.16581571 C44.8375026,6.94270464 45.0903212,6.58716346 45.1877664,6.16473386 C45.2906003,5.71716498 45.2066268,5.23592742 44.9565025,4.84357516" id="Fill-36" fill="#0075FF" mask="url(#mask-2)"></path>
                        <path d="M20.7287057,47.9476008 L11.4027056,38.624521 C11.1224945,38.3439488 11.1224945,37.8891972 11.4027056,37.608625 L20.7803471,28.233471 C21.0610073,27.9528987 21.5159012,27.9528987 21.7965614,28.233471 L25.6409319,32.0770866 C25.9215921,32.35721 25.9215921,32.8119615 25.6409319,33.0925338 L20.6155435,38.1163485 L25.5892904,43.088538 C25.8699506,43.3691103 25.8699506,43.8238618 25.5892904,44.1044341 L21.7449199,47.9476008 C21.4642598,48.2281731 21.0093658,48.2281731 20.7287057,47.9476008" id="Fill-37" fill="#0075FF" mask="url(#mask-2)"></path>
                        <path d="M42.1127191,47.9366472 L38.2683486,44.0934806 C37.9876884,43.8129083 37.9876884,43.3581568 38.2683486,43.0775845 L43.293737,38.0537697 L38.31999,33.0815802 C38.0397789,32.8010079 38.0397789,32.3462564 38.31999,32.0661331 L42.1643605,28.2225175 C42.4450207,27.9419452 42.8999147,27.9419452 43.1805748,28.2225175 L52.5065749,37.5460461 C52.7872351,37.8261695 52.7872351,38.280921 52.5065749,38.5614933 L43.1289334,47.9366472 C42.8482732,48.2172195 42.3933792,48.2172195 42.1127191,47.9366472" id="Fill-38" fill="#0075FF" mask="url(#mask-2)"></path>
                        <path d="M30.4939276,43.3887279 L26.6495571,39.5455612 C26.368897,39.264989 26.368897,38.8102374 26.6495571,38.5296652 L32.3992733,32.7813005 C32.6799334,32.5007283 33.1348274,32.5007283 33.4154876,32.7813005 L37.2598581,36.6249162 C37.5405182,36.9054884 37.5405182,37.36024 37.2598581,37.6403633 L31.5101419,43.3887279 C31.2294818,43.6693002 30.7745878,43.6693002 30.4939276,43.3887279" id="Fill-39" fill="#0075FF" mask="url(#mask-2)"></path>
                    </g>
                </g>
            </g>
        </g>
    </g>
</svg>